<?xml version="1.0" encoding="iso-8859-1"?>
<!-- Generator: Adobe Illustrator 19.0.0, SVG Export Plug-In . SVG Version: 6.00 Build 0)  -->
<svg width="50" height="50" version="1.1" id="Layer_1" xmlns="http://www.w3.org/2000/svg" xmlns:xlink="http://www.w3.org/1999/xlink" x="0px" y="0px"
	 viewBox="0 0 512 512" style="enable-background:new 0 0 512 512;" xml:space="preserve">
<circle style="fill:#71E2EF;" cx="256" cy="256" r="256"/>
<path style="fill:#38C6D9;" d="M258.996,511.962c134.816-1.548,244.577-107.294,252.525-240.481L397.36,157.32l-146.754,17.146
	l2.52,2.52h-85.171l-47.604,36.64l59.564,59.564H147.97l-12.283-12.283l-11.804,28.567l18.927,18.83l-2.215,0.991l56.386,54.872
	l-74.487,12.464L258.996,511.962z"/>
<g>
	<rect x="167.96" y="283.358" style="fill:#808183;" width="13.295" height="62.026"/>
	<rect x="330.749" y="283.358" style="fill:#808183;" width="13.295" height="62.026"/>
</g>
<rect x="245.398" y="168.46" style="fill:#FF314F;" width="21.204" height="169.632"/>
<rect x="255.431" y="168.46" style="fill:#A30F44;" width="11.176" height="169.632"/>
<path style="fill:#FF5419;" d="M397.36,196.606c0,15.601-12.659,28.248-28.272,28.248s-28.272-12.647-28.272-28.248
	c0,15.601-12.659,28.248-28.272,28.248c-15.613,0-28.272-12.647-28.272-28.248c0,15.601-12.659,28.248-28.272,28.248
	c-15.613,0-28.272-12.647-28.272-28.248c0,15.601-12.659,28.248-28.272,28.248s-28.272-12.647-28.272-28.248
	c0,15.601-12.659,28.248-28.272,28.248s-28.272-12.647-28.272-28.248v-34.418H397.36L397.36,196.606L397.36,196.606z"/>
<path style="fill:#C92F00;" d="M255.426,162.188v62.638c0.193,0.003,0.381,0.029,0.574,0.029c15.613,0,28.272-12.647,28.272-28.248
	c0,15.601,12.659,28.248,28.272,28.248c15.613,0,28.272-12.647,28.272-28.248c0,15.601,12.659,28.248,28.272,28.248
	c15.613,0,28.272-12.647,28.272-28.248v-34.419H255.426z"/>
<path style="fill:#B54324;" d="M122.494,158.555C208.801,134.154,256,83.651,256,83.651s47.199,50.504,133.506,74.904
	C389.506,158.555,282.971,188.061,122.494,158.555z"/>
<path style="fill:#930000;" d="M389.506,158.555C303.199,134.154,256,83.651,256,83.651s-0.195,0.209-0.574,0.596v87.38
	C339.108,172.511,389.506,158.555,389.506,158.555z"/>
<path style="fill:#FFFFFF;" d="M255.536,83.651c-0.012,0.031-19.194,51.133-54.665,85.428c43.306,3.586,80.581,3.012,110.258,0.884
	C275.06,135.664,255.541,83.665,255.536,83.651L255.536,83.651z"/>
<path style="fill:#D0D1D3;" d="M311.129,169.963c-36.069-34.299-55.587-86.3-55.593-86.313l0,0c0,0.002-0.045,0.119-0.11,0.286
	v87.686C276.12,171.83,294.783,171.136,311.129,169.963z"/>
<rect x="114.64" y="157.324" style="fill:#FF7F4F;" width="282.721" height="17.308"/>
<rect x="255.431" y="157.324" style="fill:#D35933;" width="141.929" height="17.308"/>
<rect x="122.501" y="338.092" style="fill:#386895;" width="267.016" height="38.533"/>
<rect x="255.431" y="338.092" style="fill:#273B7A;" width="134.085" height="38.533"/>
<g>
	<path style="fill:#D35933;" d="M225.32,259.744l7.385-11.854c0,0-9.716-13.021-23.124-9.911
		c-13.409,3.11-24.097,10.493-27.982,29.15l29.343-10.623L225.32,259.744z"/>
	<path style="fill:#D35933;" d="M154.974,268.295c0,0-11.271-14.769-21.182-13.214c-9.911,1.555-9.911,34.395-9.911,34.395
		s7.463-24.616,26.817-16.129L154.974,268.295z"/>
</g>
<path style="fill:#FFFFFF;" d="M188.399,264.213h-31.48c0,0-7.578,2.915-8.938,10.883c-1.36,7.968-7.385,34.201-7.385,34.201h15.157
	c0,0,2.332-22.542,21.57-22.542s22.347,22.542,22.347,22.542h16.324c0,0-12.302-21.482-2.817-43.208
	c0.371-0.85,1.493-1.024,2.088-0.314c2.357,2.812,7.745,8.171,12.583,5.239c8.58-5.199-4.663-19.044-9.521-22.347
	C213.466,245.363,199.475,241.671,188.399,264.213z"/>
<path style="fill:#E09112;" d="M174.601,277.816c7.513,0,13.603-6.091,13.603-13.603h-27.205
	C160.999,271.725,167.09,277.816,174.601,277.816z"/>
<g>
	<path style="fill:#D35933;" d="M286.68,259.744l-7.385-11.854c0,0,9.716-13.021,23.124-9.911
		c13.409,3.11,24.097,10.493,27.982,29.15l-29.343-10.623L286.68,259.744z"/>
	<path style="fill:#D35933;" d="M357.026,268.295c0,0,11.271-14.769,21.182-13.214c9.911,1.555,9.911,34.395,9.911,34.395
		s-7.463-24.616-26.817-16.129L357.026,268.295z"/>
</g>
<path style="fill:#FFFFFF;" d="M323.601,264.213h31.48c0,0,7.578,2.915,8.938,10.883s7.385,34.201,7.385,34.201h-15.157
	c0,0-2.332-22.542-21.569-22.542c-19.239,0-22.347,22.542-22.347,22.542h-16.324c0,0,12.302-21.482,2.817-43.208
	c-0.371-0.85-1.493-1.024-2.088-0.314c-2.357,2.812-7.746,8.171-12.583,5.239c-8.58-5.199,4.663-19.044,9.521-22.347
	C298.534,245.364,312.525,241.671,323.601,264.213z"/>
<path style="fill:#E09112;" d="M337.399,277.816c-7.513,0-13.603-6.091-13.603-13.603h27.205
	C351.001,271.725,344.91,277.816,337.399,277.816z"/>
<g>
</g>
<g>
</g>
<g>
</g>
<g>
</g>
<g>
</g>
<g>
</g>
<g>
</g>
<g>
</g>
<g>
</g>
<g>
</g>
<g>
</g>
<g>
</g>
<g>
</g>
<g>
</g>
<g>
</g>
</svg>
